<svg xmlns="http://www.w3.org/2000/svg" viewBox="0 0 760 640" font-family="ui-sans-serif,system-ui,Segoe UI,Roboto,sans-serif"><rect width="760" height="640" fill="#f9fafb"/><g><text x="46.0" y="26.0" font-size="13" font-weight="600" fill="#111827">Calibrated accuracy vs coverage</text><rect x="46.0" y="36.0" width="552.0" height="246.0" fill="#ffffff" stroke="#d1d5db" stroke-width="1"/><line x1="46.0" y1="282.0" x2="598.0" y2="282.0" stroke="#f3f4f6" stroke-width="1"/><text x="41.0" y="285.0" font-size="9" text-anchor="end" fill="#6b7280">0.00</text><line x1="46.0" y1="220.5" x2="598.0" y2="220.5" stroke="#f3f4f6" stroke-width="1"/><text x="41.0" y="223.5" font-size="9" text-anchor="end" fill="#6b7280">0.25</text><line x1="46.0" y1="159.0" x2="598.0" y2="159.0" stroke="#f3f4f6" stroke-width="1"/><text x="41.0" y="162.0" font-size="9" text-anchor="end" fill="#6b7280">0.50</text><line x1="46.0" y1="97.5" x2="598.0" y2="97.5" stroke="#f3f4f6" stroke-width="1"/><text x="41.0" y="100.5" font-size="9" text-anchor="end" fill="#6b7280">0.75</text><line x1="46.0" y1="36.0" x2="598.0" y2="36.0" stroke="#f3f4f6" stroke-width="1"/><text x="41.0" y="39.0" font-size="9" text-anchor="end" fill="#6b7280">1.00</text><text x="46.0" y="296.0" font-size="9" text-anchor="middle" fill="#6b7280">0.00</text><text x="184.0" y="296.0" font-size="9" text-anchor="middle" fill="#6b7280">0.25</text><text x="322.0" y="296.0" font-size="9" text-anchor="middle" fill="#6b7280">0.50</text><text x="460.0" y="296.0" font-size="9" text-anchor="middle" fill="#6b7280">0.75</text><text x="598.0" y="296.0" font-size="9" text-anchor="middle" fill="#6b7280">1.00</text><text x="322.0" y="308.0" font-size="10" text-anchor="middle" fill="#374151">coverage</text><text x="12.0" y="159.0" font-size="10" fill="#374151" transform="rotate(-90 12.0 159.0)" text-anchor="middle">calibrated accuracy</text><line x1="46.0" y1="122.1" x2="598.0" y2="122.1" stroke="#9ca3af" stroke-width="1" stroke-dasharray="4 3"/><text x="596.0" y="119.1" font-size="8" text-anchor="end" fill="#6b7280">target 0.65</text><line x1="101.2" y1="36.0" x2="101.2" y2="282.0" stroke="#9ca3af" stroke-width="1" stroke-dasharray="4 3"/><text x="103.2" y="46.0" font-size="8" fill="#6b7280">min cov 0.10</text><polyline points="298.6,63.9 298.6,63.9 298.6,63.9 316.8,64.4 316.8,64.4 316.8,64.4 316.8,64.4 316.8,64.4 371.5,67.5 371.5,67.5 371.5,67.5 371.5,67.5 371.5,67.5 402.7,70.1 402.7,70.1 402.7,70.1 402.7,70.1 402.7,70.1 402.7,70.1 402.7,70.1 402.7,70.1 402.7,70.1 410.5,71.1 410.5,71.1 410.5,71.1 410.5,71.1 410.5,71.1 410.5,71.1 410.5,71.1 410.5,71.1 410.5,71.1 410.5,71.1 410.5,71.1 410.5,71.1 410.5,71.1 410.5,71.1 410.5,71.1 410.5,71.1 530.3,92.9" fill="none" stroke="#2563eb" stroke-width="1.6"/><circle cx="519.7" cy="97.9" r="3.5" fill="#2563eb" stroke="#ffffff" stroke-width="1"/></g><rect x="620.0" y="28.0" width="10" height="10" fill="#2563eb"/><text x="635.0" y="37.0" font-size="10" fill="#374151">conviction/tip_backtest</text><g><text x="46.0" y="346.0" font-size="13" font-weight="600" fill="#111827">Realized EV (net of cost) vs coverage</text><rect x="46.0" y="356.0" width="552.0" height="246.0" fill="#ffffff" stroke="#d1d5db" stroke-width="1"/><line x1="46.0" y1="602.0" x2="598.0" y2="602.0" stroke="#f3f4f6" stroke-width="1"/><text x="41.0" y="605.0" font-size="9" text-anchor="end" fill="#6b7280">0.35</text><line x1="46.0" y1="540.5" x2="598.0" y2="540.5" stroke="#f3f4f6" stroke-width="1"/><text x="41.0" y="543.5" font-size="9" text-anchor="end" fill="#6b7280">0.37</text><line x1="46.0" y1="479.0" x2="598.0" y2="479.0" stroke="#f3f4f6" stroke-width="1"/><text x="41.0" y="482.0" font-size="9" text-anchor="end" fill="#6b7280">0.39</text><line x1="46.0" y1="417.5" x2="598.0" y2="417.5" stroke="#f3f4f6" stroke-width="1"/><text x="41.0" y="420.5" font-size="9" text-anchor="end" fill="#6b7280">0.41</text><line x1="46.0" y1="356.0" x2="598.0" y2="356.0" stroke="#f3f4f6" stroke-width="1"/><text x="41.0" y="359.0" font-size="9" text-anchor="end" fill="#6b7280">0.43</text><text x="46.0" y="616.0" font-size="9" text-anchor="middle" fill="#6b7280">0.00</text><text x="184.0" y="616.0" font-size="9" text-anchor="middle" fill="#6b7280">0.25</text><text x="322.0" y="616.0" font-size="9" text-anchor="middle" fill="#6b7280">0.50</text><text x="460.0" y="616.0" font-size="9" text-anchor="middle" fill="#6b7280">0.75</text><text x="598.0" y="616.0" font-size="9" text-anchor="middle" fill="#6b7280">1.00</text><text x="322.0" y="628.0" font-size="10" text-anchor="middle" fill="#374151">coverage</text><text x="12.0" y="479.0" font-size="10" fill="#374151" transform="rotate(-90 12.0 479.0)" text-anchor="middle">EV / unit risk</text><line x1="46.0" y1="602.0" x2="598.0" y2="602.0" stroke="#9ca3af" stroke-width="1" stroke-dasharray="4 3"/><text x="596.0" y="599.0" font-size="8" text-anchor="end" fill="#6b7280">breakeven</text><line x1="101.2" y1="356.0" x2="101.2" y2="602.0" stroke="#9ca3af" stroke-width="1" stroke-dasharray="4 3"/><text x="103.2" y="366.0" font-size="8" fill="#6b7280">min cov 0.10</text><polyline points="298.6,376.5 298.6,376.5 298.6,376.5 316.8,394.2 316.8,394.2 316.8,394.2 316.8,394.2 316.8,394.2 371.5,511.1 371.5,511.1 371.5,511.1 371.5,511.1 371.5,511.1 402.7,511.3 402.7,511.3 402.7,511.3 402.7,511.3 402.7,511.3 402.7,511.3 402.7,511.3 402.7,511.3 402.7,511.3 410.5,478.4 410.5,478.4 410.5,478.4 410.5,478.4 410.5,478.4 410.5,478.4 410.5,478.4 410.5,478.4 410.5,478.4 410.5,478.4 410.5,478.4 410.5,478.4 410.5,478.4 410.5,478.4 410.5,478.4 410.5,478.4 530.3,581.5" fill="none" stroke="#2563eb" stroke-width="1.6"/><circle cx="519.7" cy="517.2" r="3.5" fill="#2563eb" stroke="#ffffff" stroke-width="1"/></g><rect x="620.0" y="348.0" width="10" height="10" fill="#2563eb"/><text x="635.0" y="357.0" font-size="10" fill="#374151">conviction/tip_backtest</text></svg>